<?xml version="1.0" standalone="no"?>
<!DOCTYPE svg PUBLIC "-//W3C//DTD SVG 20010904//EN"
 "http://www.w3.org/TR/2001/REC-SVG-20010904/DTD/svg10.dtd">
<svg version="1.0" xmlns="http://www.w3.org/2000/svg"
 width="245.000000pt" height="79.000000pt" viewBox="0 0 245.000000 79.000000"
 preserveAspectRatio="xMidYMid meet">

<g transform="translate(0.000000,79.000000) scale(0.100000,-0.100000)"
fill="#000000" stroke="none">
<path d="M0 395 l0 -395 1225 0 1225 0 0 395 0 395 -1225 0 -1225 0 0 -395z
m376 44 c51 -50 65 -59 70 -45 3 9 4 30 0 46 -5 27 -3 30 19 30 24 0 25 -2 25
-73 0 -63 3 -76 23 -94 12 -11 29 -23 37 -26 10 -3 6 -6 -8 -6 -16 -1 -46 20
-94 67 l-70 67 3 -47 c4 -46 3 -48 -21 -48 -25 0 -25 1 -22 74 l3 73 -33 21
c-24 16 -28 22 -15 22 10 0 47 -28 83 -61z m1134 31 c11 -6 31 -31 46 -56 15
-25 30 -42 33 -37 4 4 20 26 36 48 l29 39 17 -84 c12 -62 23 -89 39 -102 l22
-18 -22 0 c-30 0 -80 52 -80 84 0 39 -16 39 -40 0 l-23 -35 -26 43 -26 43 -9
-42 c-5 -24 -12 -43 -16 -43 -4 0 -4 19 1 43 13 65 11 76 -16 102 -23 24 -23
25 -4 25 11 0 29 -5 39 -10z m-852 -6 c12 -4 22 -13 22 -22 0 -13 -2 -13 -18
1 -56 51 -120 -31 -82 -104 19 -34 70 -18 70 23 0 11 7 18 20 18 14 0 20 -7
20 -24 0 -40 -76 -59 -129 -31 -34 17 -47 57 -31 95 17 42 68 60 128 44z m112
-58 c0 -71 14 -92 54 -82 28 7 41 50 34 111 -2 20 0 35 7 35 6 0 9 -24 7 -65
-4 -71 -22 -95 -72 -95 -50 0 -68 24 -72 95 -3 62 -2 65 20 65 20 0 22 -4 22
-64z m190 54 c0 -6 7 -22 16 -36 l17 -25 18 27 c10 15 16 31 13 36 -3 4 2 8
11 8 13 0 11 -8 -10 -43 -14 -25 -25 -59 -25 -80 0 -33 -3 -37 -25 -37 -23 0
-25 4 -25 43 0 29 -8 54 -25 80 l-26 37 31 0 c16 0 30 -5 30 -10z m230 2 c0
-5 -13 -7 -30 -4 -29 4 -30 3 -30 -33 0 -34 2 -37 25 -33 16 3 25 1 25 -7 0
-8 -9 -10 -25 -7 -22 4 -25 1 -25 -27 0 -26 4 -31 23 -31 13 0 28 5 35 12 9 9
12 8 12 -5 0 -14 -10 -17 -57 -17 l-58 0 0 80 0 80 53 0 c28 0 52 -4 52 -8z
m200 -73 l0 -81 -55 47 -55 47 0 -46 c0 -42 -2 -46 -25 -46 -24 0 -25 2 -25
75 0 41 3 75 6 75 3 0 27 -18 52 -41 l47 -41 3 46 c3 41 6 46 28 46 23 0 24
-2 24 -81z m375 1 c0 -79 0 -80 -25 -80 -25 0 -25 1 -25 80 0 79 0 80 25 80
25 0 25 -1 25 -80z m197 5 c-2 -41 -6 -75 -10 -75 -3 0 -25 19 -49 42 -35 35
-43 39 -49 25 -3 -10 -4 -31 -2 -47 4 -27 2 -30 -21 -30 -26 0 -26 0 -23 75
l4 75 26 -19 c15 -10 36 -28 46 -40 29 -32 38 -25 34 24 -3 42 -2 45 22 45 25
0 25 -1 22 -75z m90 35 c-4 -39 -3 -40 27 -40 30 0 31 2 31 40 0 36 3 40 25
40 25 0 25 -1 25 -80 0 -79 0 -80 -25 -80 -22 0 -25 4 -25 35 0 32 -2 35 -31
35 -30 0 -31 -2 -27 -35 4 -32 2 -35 -22 -35 -25 0 -25 1 -25 80 0 79 0 80 25
80 24 0 25 -3 22 -40z"/>
</g>
</svg>
